<?xml version="1.0" standalone="no"?>
<!DOCTYPE svg PUBLIC "-//W3C//DTD SVG 20010904//EN"
 "http://www.w3.org/TR/2001/REC-SVG-20010904/DTD/svg10.dtd">
<svg version="1.0" xmlns="http://www.w3.org/2000/svg"
 width="810.000000pt" height="810.000000pt" viewBox="0 0 810.000000 810.000000"
 preserveAspectRatio="xMidYMid meet">
<metadata>
Created by potrace 1.14, written by Peter Selinger 2001-2017
</metadata>
<g transform="translate(0.000000,810.000000) scale(0.100000,-0.100000)"
fill="#000000" stroke="none">
<path d="M4739 6595 c-2 -2 -33 -6 -69 -9 -36 -3 -87 -10 -115 -16 -27 -5 -61
-12 -75 -14 -14 -2 -48 -10 -76 -16 l-52 -11 1 -2310 1 -2309 338 0 338 0 0
1189 0 1189 65 11 c36 7 84 15 108 19 87 14 299 8 362 -11 185 -55 290 -162
358 -367 37 -109 42 -161 42 -405 0 -210 -4 -280 -25 -495 -18 -180 -19 -198
-27 -321 -21 -336 -2 -502 73 -650 43 -87 136 -185 207 -217 109 -51 283 -65
443 -36 92 17 344 86 344 94 0 3 -21 15 -48 28 -116 55 -226 203 -266 357 -28
112 -35 275 -22 545 20 431 25 788 12 945 -35 416 -216 648 -581 740 -54 14
-100 27 -102 28 -2 2 18 19 45 38 251 179 433 467 497 788 17 84 23 232 13
306 -70 472 -511 802 -1193 891 -27 3 -61 8 -75 11 -31 5 -517 13 -521 8z
m416 -240 c255 -25 485 -128 620 -278 67 -73 69 -76 104 -139 26 -45 84 -196
80 -206 0 -1 4 -33 11 -70 65 -385 -102 -802 -398 -996 -127 -84 -247 -116
-433 -116 l-109 0 0 910 0 910 33 -5 c17 -2 59 -7 92 -10z"/>
<path d="M3603 6575 c-192 -34 -367 -121 -566 -283 -90 -72 -227 -206 -297
-291 -25 -29 -50 -59 -56 -65 -26 -27 -158 -211 -216 -301 -130 -201 -326
-576 -430 -819 l-33 -80 -280 -1 c-154 -1 -289 -5 -300 -7 -11 -3 -42 -9 -70
-12 -246 -31 -497 -126 -633 -239 -140 -118 -193 -219 -197 -376 -3 -133 26
-223 94 -289 35 -34 152 -97 202 -108 161 -36 328 10 365 101 44 109 -5 234
-109 276 -41 16 -45 24 -41 66 11 119 191 234 449 287 107 22 415 54 415 43 0
-2 -23 -66 -51 -142 -129 -358 -279 -905 -335 -1225 -3 -14 -7 -32 -9 -40 -2
-8 -7 -40 -10 -70 -4 -30 -8 -57 -10 -60 -2 -3 -6 -29 -10 -59 -4 -30 -8 -61
-10 -70 -1 -9 -6 -47 -10 -86 -4 -38 -9 -81 -11 -95 -18 -107 -25 -501 -12
-635 15 -156 43 -259 100 -378 70 -145 160 -247 278 -317 109 -66 208 -91 413
-106 l89 -7 -38 74 c-93 185 -149 407 -171 681 -14 171 -6 722 11 815 2 10 7
54 10 98 4 44 9 87 11 95 2 8 6 42 10 75 3 33 8 71 10 85 2 14 6 48 10 75 3
28 8 57 10 65 2 8 6 38 10 65 25 202 122 676 202 990 44 169 30 155 143 141
65 -8 92 -12 185 -31 39 -8 86 -17 105 -20 104 -17 476 -120 555 -154 11 -5
61 -26 112 -47 53 -22 93 -44 95 -53 2 -9 3 -517 3 -1128 l-1 -1113 343 0 343
0 0 2303 0 2303 -56 18 c-31 10 -68 20 -82 22 -14 3 -29 7 -33 10 -4 2 -31 7
-61 10 -29 3 -69 9 -88 13 -58 12 -270 10 -347 -4z m-18 -1250 c0 -528 -1
-965 -3 -972 -3 -9 -15 -7 -42 7 -124 63 -561 207 -720 237 -13 2 -60 13 -105
23 -44 10 -109 24 -145 30 -36 6 -68 14 -72 16 -15 9 162 494 252 689 117 256
219 433 355 613 40 54 201 207 250 238 64 40 171 82 207 80 l22 -1 1 -960z"/>
</g>
</svg>
